<mxfile host="app.diagrams.net" modified="2020-11-03T13:59:23.889Z" agent="5.0 (Windows NT 10.0; WOW64) AppleWebKit/537.36 (KHTML, like Gecko) Chrome/85.0.4183.121 Safari/537.36 OPR/71.0.3770.284 (Edition Yx)" etag="uK_EMJMocbyiQxWHWb9Z" version="13.8.8" type="github">
  <diagram id="RY1PJV09fTI6i6kYejut" name="Page-1">
    <mxGraphModel dx="1825" dy="580" grid="1" gridSize="10" guides="1" tooltips="1" connect="1" arrows="1" fold="1" page="1" pageScale="1" pageWidth="827" pageHeight="1169" math="0" shadow="0">
      <root>
        <mxCell id="0" />
        <mxCell id="1" parent="0" />
        <mxCell id="l641pdiZXAvSVc7lG4hm-1" value="" style="rounded=0;whiteSpace=wrap;html=1;" vertex="1" parent="1">
          <mxGeometry x="120" y="160" width="100" height="80" as="geometry" />
        </mxCell>
        <mxCell id="l641pdiZXAvSVc7lG4hm-2" value="Внедрение электронной системы &quot;Эффективный контракт&quot;" style="text;html=1;strokeColor=none;fillColor=none;align=center;verticalAlign=middle;whiteSpace=wrap;rounded=0;" vertex="1" parent="1">
          <mxGeometry x="150" y="190" width="40" height="20" as="geometry" />
        </mxCell>
        <mxCell id="l641pdiZXAvSVc7lG4hm-3" value="Подписанное положение об эффективном контракте" style="text;html=1;strokeColor=none;fillColor=none;align=center;verticalAlign=middle;whiteSpace=wrap;rounded=0;" vertex="1" parent="1">
          <mxGeometry x="320" y="70" width="40" height="20" as="geometry" />
        </mxCell>
        <mxCell id="l641pdiZXAvSVc7lG4hm-4" value="Приказ Минтруда №167" style="text;html=1;strokeColor=none;fillColor=none;align=center;verticalAlign=middle;whiteSpace=wrap;rounded=0;" vertex="1" parent="1">
          <mxGeometry x="420" y="70" width="40" height="20" as="geometry" />
        </mxCell>
        <mxCell id="l641pdiZXAvSVc7lG4hm-25" style="edgeStyle=orthogonalEdgeStyle;rounded=0;orthogonalLoop=1;jettySize=auto;html=1;" edge="1" parent="1">
          <mxGeometry relative="1" as="geometry">
            <mxPoint x="50" y="300" as="sourcePoint" />
            <mxPoint x="120" y="210" as="targetPoint" />
            <Array as="points">
              <mxPoint x="70" y="300" />
              <mxPoint x="70" y="210" />
            </Array>
          </mxGeometry>
        </mxCell>
        <mxCell id="l641pdiZXAvSVc7lG4hm-26" style="edgeStyle=orthogonalEdgeStyle;rounded=0;orthogonalLoop=1;jettySize=auto;html=1;entryX=0;entryY=0.75;entryDx=0;entryDy=0;" edge="1" parent="1" target="l641pdiZXAvSVc7lG4hm-16">
          <mxGeometry relative="1" as="geometry">
            <mxPoint x="50" y="300" as="sourcePoint" />
          </mxGeometry>
        </mxCell>
        <mxCell id="l641pdiZXAvSVc7lG4hm-27" style="edgeStyle=orthogonalEdgeStyle;rounded=0;orthogonalLoop=1;jettySize=auto;html=1;entryX=0;entryY=0.75;entryDx=0;entryDy=0;" edge="1" parent="1" target="l641pdiZXAvSVc7lG4hm-20">
          <mxGeometry relative="1" as="geometry">
            <mxPoint x="50" y="300" as="sourcePoint" />
            <Array as="points">
              <mxPoint x="160" y="300" />
              <mxPoint x="160" y="390" />
            </Array>
          </mxGeometry>
        </mxCell>
        <mxCell id="l641pdiZXAvSVc7lG4hm-7" value="Компьютер" style="text;html=1;strokeColor=none;fillColor=none;align=center;verticalAlign=middle;whiteSpace=wrap;rounded=0;" vertex="1" parent="1">
          <mxGeometry x="-10" y="290" width="40" height="20" as="geometry" />
        </mxCell>
        <mxCell id="l641pdiZXAvSVc7lG4hm-8" value="АИС &quot;Эффективный контракт&quot;" style="text;html=1;strokeColor=none;fillColor=none;align=center;verticalAlign=middle;whiteSpace=wrap;rounded=0;" vertex="1" parent="1">
          <mxGeometry x="-80" y="180" width="150" height="20" as="geometry" />
        </mxCell>
        <mxCell id="l641pdiZXAvSVc7lG4hm-12" value="Специалист по внедрению" style="text;html=1;strokeColor=none;fillColor=none;align=center;verticalAlign=middle;whiteSpace=wrap;rounded=0;" vertex="1" parent="1">
          <mxGeometry x="150" y="560" width="40" height="20" as="geometry" />
        </mxCell>
        <mxCell id="l641pdiZXAvSVc7lG4hm-13" value="Электронная система &quot;Эффективный контракт&quot;" style="text;html=1;strokeColor=none;fillColor=none;align=center;verticalAlign=middle;whiteSpace=wrap;rounded=0;" vertex="1" parent="1">
          <mxGeometry x="730" y="450" width="40" height="20" as="geometry" />
        </mxCell>
        <mxCell id="l641pdiZXAvSVc7lG4hm-14" value="" style="endArrow=classic;html=1;" edge="1" parent="1">
          <mxGeometry width="50" height="50" relative="1" as="geometry">
            <mxPoint x="650" y="459.5" as="sourcePoint" />
            <mxPoint x="700" y="459.5" as="targetPoint" />
          </mxGeometry>
        </mxCell>
        <mxCell id="l641pdiZXAvSVc7lG4hm-16" value="" style="rounded=0;whiteSpace=wrap;html=1;" vertex="1" parent="1">
          <mxGeometry x="270" y="240" width="100" height="80" as="geometry" />
        </mxCell>
        <mxCell id="l641pdiZXAvSVc7lG4hm-17" value="Тестирование&lt;br&gt;&amp;nbsp;электронной системы &quot;Эффективный контракт&quot;" style="text;html=1;strokeColor=none;fillColor=none;align=center;verticalAlign=middle;whiteSpace=wrap;rounded=0;" vertex="1" parent="1">
          <mxGeometry x="300" y="270" width="40" height="20" as="geometry" />
        </mxCell>
        <mxCell id="l641pdiZXAvSVc7lG4hm-20" value="" style="rounded=0;whiteSpace=wrap;html=1;" vertex="1" parent="1">
          <mxGeometry x="414" y="330" width="100" height="80" as="geometry" />
        </mxCell>
        <mxCell id="l641pdiZXAvSVc7lG4hm-21" value="Исправление ошибок системы &quot;Эффективный контракт&quot;" style="text;html=1;strokeColor=none;fillColor=none;align=center;verticalAlign=middle;whiteSpace=wrap;rounded=0;" vertex="1" parent="1">
          <mxGeometry x="444" y="360" width="40" height="20" as="geometry" />
        </mxCell>
        <mxCell id="l641pdiZXAvSVc7lG4hm-22" value="" style="rounded=0;whiteSpace=wrap;html=1;" vertex="1" parent="1">
          <mxGeometry x="560" y="420" width="100" height="80" as="geometry" />
        </mxCell>
        <mxCell id="l641pdiZXAvSVc7lG4hm-23" value="Доработка системы &quot;Эффективный контракт&quot;" style="text;html=1;strokeColor=none;fillColor=none;align=center;verticalAlign=middle;whiteSpace=wrap;rounded=0;" vertex="1" parent="1">
          <mxGeometry x="590" y="450" width="40" height="20" as="geometry" />
        </mxCell>
        <mxCell id="l641pdiZXAvSVc7lG4hm-30" value="" style="endArrow=classic;html=1;entryX=0;entryY=0.75;entryDx=0;entryDy=0;" edge="1" parent="1" target="l641pdiZXAvSVc7lG4hm-22">
          <mxGeometry width="50" height="50" relative="1" as="geometry">
            <mxPoint x="50" y="300" as="sourcePoint" />
            <mxPoint x="100" y="250" as="targetPoint" />
            <Array as="points">
              <mxPoint x="160" y="300" />
              <mxPoint x="160" y="480" />
            </Array>
          </mxGeometry>
        </mxCell>
        <mxCell id="l641pdiZXAvSVc7lG4hm-35" value="" style="endArrow=classic;html=1;" edge="1" parent="1">
          <mxGeometry width="50" height="50" relative="1" as="geometry">
            <mxPoint x="70" y="190" as="sourcePoint" />
            <mxPoint x="110" y="190" as="targetPoint" />
          </mxGeometry>
        </mxCell>
        <mxCell id="l641pdiZXAvSVc7lG4hm-36" value="" style="endArrow=classic;html=1;entryX=-0.046;entryY=0.388;entryDx=0;entryDy=0;entryPerimeter=0;exitX=1;exitY=0.5;exitDx=0;exitDy=0;" edge="1" parent="1" source="l641pdiZXAvSVc7lG4hm-1" target="l641pdiZXAvSVc7lG4hm-16">
          <mxGeometry width="50" height="50" relative="1" as="geometry">
            <mxPoint x="230" y="200" as="sourcePoint" />
            <mxPoint x="280" y="150" as="targetPoint" />
            <Array as="points">
              <mxPoint x="240" y="200" />
              <mxPoint x="240" y="271" />
            </Array>
          </mxGeometry>
        </mxCell>
        <mxCell id="l641pdiZXAvSVc7lG4hm-37" value="Внедренная система" style="text;html=1;strokeColor=none;fillColor=none;align=center;verticalAlign=middle;whiteSpace=wrap;rounded=0;" vertex="1" parent="1">
          <mxGeometry x="190" y="260" width="40" height="20" as="geometry" />
        </mxCell>
        <mxCell id="l641pdiZXAvSVc7lG4hm-38" value="" style="endArrow=classic;html=1;entryX=-0.046;entryY=0.388;entryDx=0;entryDy=0;entryPerimeter=0;exitX=1;exitY=0.5;exitDx=0;exitDy=0;" edge="1" parent="1">
          <mxGeometry width="50" height="50" relative="1" as="geometry">
            <mxPoint x="370" y="290" as="sourcePoint" />
            <mxPoint x="415.4000000000001" y="361.03999999999996" as="targetPoint" />
            <Array as="points">
              <mxPoint x="390" y="290" />
              <mxPoint x="390" y="361" />
            </Array>
          </mxGeometry>
        </mxCell>
        <mxCell id="l641pdiZXAvSVc7lG4hm-39" value="" style="endArrow=classic;html=1;entryX=-0.046;entryY=0.388;entryDx=0;entryDy=0;entryPerimeter=0;exitX=1;exitY=0.5;exitDx=0;exitDy=0;" edge="1" parent="1">
          <mxGeometry width="50" height="50" relative="1" as="geometry">
            <mxPoint x="514" y="380" as="sourcePoint" />
            <mxPoint x="559.4000000000001" y="451.03999999999996" as="targetPoint" />
            <Array as="points">
              <mxPoint x="534" y="380" />
              <mxPoint x="534" y="451" />
            </Array>
          </mxGeometry>
        </mxCell>
        <mxCell id="l641pdiZXAvSVc7lG4hm-40" value="Система после 1 тестирования" style="text;html=1;strokeColor=none;fillColor=none;align=center;verticalAlign=middle;whiteSpace=wrap;rounded=0;" vertex="1" parent="1">
          <mxGeometry x="340" y="340" width="40" height="20" as="geometry" />
        </mxCell>
        <mxCell id="l641pdiZXAvSVc7lG4hm-41" value="Исправленная система" style="text;html=1;strokeColor=none;fillColor=none;align=center;verticalAlign=middle;whiteSpace=wrap;rounded=0;" vertex="1" parent="1">
          <mxGeometry x="484" y="440" width="40" height="20" as="geometry" />
        </mxCell>
        <mxCell id="l641pdiZXAvSVc7lG4hm-42" value="" style="endArrow=classic;html=1;entryX=0.406;entryY=-0.022;entryDx=0;entryDy=0;entryPerimeter=0;" edge="1" parent="1" target="l641pdiZXAvSVc7lG4hm-1">
          <mxGeometry width="50" height="50" relative="1" as="geometry">
            <mxPoint x="360" y="120" as="sourcePoint" />
            <mxPoint x="410" y="70" as="targetPoint" />
            <Array as="points">
              <mxPoint x="161" y="120" />
            </Array>
          </mxGeometry>
        </mxCell>
        <mxCell id="l641pdiZXAvSVc7lG4hm-43" value="" style="endArrow=classic;html=1;entryX=0.5;entryY=0;entryDx=0;entryDy=0;" edge="1" parent="1" target="l641pdiZXAvSVc7lG4hm-16">
          <mxGeometry width="50" height="50" relative="1" as="geometry">
            <mxPoint x="360" y="120" as="sourcePoint" />
            <mxPoint x="410" y="70" as="targetPoint" />
            <Array as="points">
              <mxPoint x="320" y="120" />
            </Array>
          </mxGeometry>
        </mxCell>
        <mxCell id="l641pdiZXAvSVc7lG4hm-44" value="" style="endArrow=classic;html=1;entryX=0.25;entryY=0;entryDx=0;entryDy=0;" edge="1" parent="1" target="l641pdiZXAvSVc7lG4hm-20">
          <mxGeometry width="50" height="50" relative="1" as="geometry">
            <mxPoint x="360" y="120" as="sourcePoint" />
            <mxPoint x="410" y="70" as="targetPoint" />
            <Array as="points">
              <mxPoint x="439" y="120" />
            </Array>
          </mxGeometry>
        </mxCell>
        <mxCell id="l641pdiZXAvSVc7lG4hm-45" value="" style="endArrow=classic;html=1;entryX=0.25;entryY=0;entryDx=0;entryDy=0;" edge="1" parent="1" target="l641pdiZXAvSVc7lG4hm-22">
          <mxGeometry width="50" height="50" relative="1" as="geometry">
            <mxPoint x="320" y="120" as="sourcePoint" />
            <mxPoint x="370" y="70" as="targetPoint" />
            <Array as="points">
              <mxPoint x="585" y="120" />
            </Array>
          </mxGeometry>
        </mxCell>
        <mxCell id="l641pdiZXAvSVc7lG4hm-47" value="Тестировщик" style="text;html=1;strokeColor=none;fillColor=none;align=center;verticalAlign=middle;whiteSpace=wrap;rounded=0;" vertex="1" parent="1">
          <mxGeometry x="310" y="550" width="40" height="20" as="geometry" />
        </mxCell>
        <mxCell id="l641pdiZXAvSVc7lG4hm-48" value="Программист" style="text;html=1;strokeColor=none;fillColor=none;align=center;verticalAlign=middle;whiteSpace=wrap;rounded=0;" vertex="1" parent="1">
          <mxGeometry x="490" y="550" width="40" height="20" as="geometry" />
        </mxCell>
        <mxCell id="l641pdiZXAvSVc7lG4hm-49" value="" style="endArrow=classic;html=1;" edge="1" parent="1">
          <mxGeometry width="50" height="50" relative="1" as="geometry">
            <mxPoint x="320" y="550" as="sourcePoint" />
            <mxPoint x="320" y="330" as="targetPoint" />
          </mxGeometry>
        </mxCell>
        <mxCell id="l641pdiZXAvSVc7lG4hm-50" value="" style="endArrow=classic;html=1;" edge="1" parent="1">
          <mxGeometry width="50" height="50" relative="1" as="geometry">
            <mxPoint x="160" y="540" as="sourcePoint" />
            <mxPoint x="160" y="250" as="targetPoint" />
          </mxGeometry>
        </mxCell>
        <mxCell id="l641pdiZXAvSVc7lG4hm-51" value="" style="endArrow=classic;html=1;entryX=0.41;entryY=1.033;entryDx=0;entryDy=0;entryPerimeter=0;" edge="1" parent="1" target="l641pdiZXAvSVc7lG4hm-20">
          <mxGeometry width="50" height="50" relative="1" as="geometry">
            <mxPoint x="485" y="540" as="sourcePoint" />
            <mxPoint x="535" y="490" as="targetPoint" />
            <Array as="points">
              <mxPoint x="455" y="540" />
            </Array>
          </mxGeometry>
        </mxCell>
        <mxCell id="l641pdiZXAvSVc7lG4hm-52" value="" style="endArrow=classic;html=1;entryX=0.4;entryY=1;entryDx=0;entryDy=0;entryPerimeter=0;" edge="1" parent="1" target="l641pdiZXAvSVc7lG4hm-22">
          <mxGeometry width="50" height="50" relative="1" as="geometry">
            <mxPoint x="484" y="540" as="sourcePoint" />
            <mxPoint x="534" y="490" as="targetPoint" />
            <Array as="points">
              <mxPoint x="600" y="540" />
            </Array>
          </mxGeometry>
        </mxCell>
        <mxCell id="l641pdiZXAvSVc7lG4hm-53" value="" style="endArrow=none;html=1;" edge="1" parent="1">
          <mxGeometry width="50" height="50" relative="1" as="geometry">
            <mxPoint x="520" y="550" as="sourcePoint" />
            <mxPoint x="520" y="540" as="targetPoint" />
          </mxGeometry>
        </mxCell>
      </root>
    </mxGraphModel>
  </diagram>
</mxfile>
